<svg width="100" height="100" viewBox="0 0 100 100" fill="none" xmlns="http://www.w3.org/2000/svg">
<g clip-path="url(#clip0_58_20)">
<rect width="100" height="100" fill="#F7F8FA"/>
<path d="M89.2564 41.5033H89.031L85.1993 49.1666L74.9816 67.7238L64.9892 49.2417L61.0073 40.9774H60.7819V75.913H50.0383V23.472H62.1343L74.9816 48.0396H75.1318L87.8289 23.472H100V75.913H89.2564V41.5033Z" fill="#0E1116"/>
<path d="M-0.440002 23.472H25.0292C29.3868 23.472 32.7677 24.6991 35.1718 27.1534C37.6261 29.6076 38.8532 32.8633 38.8532 36.9203C38.8532 38.9238 38.5777 40.6268 38.0268 42.0292C37.5259 43.4317 36.8247 44.5837 35.9231 45.4852C35.0717 46.3868 34.0449 47.063 32.8428 47.5137C31.6908 47.9144 30.4386 48.1398 29.0863 48.1899V48.6407C30.3384 48.6407 31.6407 48.8661 32.993 49.3169C34.3955 49.7677 35.6727 50.4939 36.8247 51.4956C37.9767 52.4473 38.9283 53.6995 39.6797 55.2522C40.481 56.8049 40.8817 58.7082 40.8817 60.9621C40.8817 63.0157 40.5311 64.969 39.8299 66.8223C39.1788 68.6254 38.2522 70.2031 37.0501 71.5555C35.848 72.9078 34.4205 73.9847 32.7677 74.7861C31.1148 75.5374 29.3117 75.913 27.3583 75.913H-0.440002V23.472ZM10.9798 66.2963H24.1277C25.6303 66.2963 26.8073 65.8957 27.6588 65.0943C28.5603 64.2428 29.0111 63.0657 29.0111 61.5631V59.0087C29.0111 57.5061 28.5603 56.3541 27.6588 55.5527C26.8073 54.7012 25.6303 54.2755 24.1277 54.2755H10.9798V66.2963ZM10.9798 44.9593H22.3245C23.8271 44.9593 25.0042 44.5336 25.8557 43.6821C26.7071 42.8306 27.1329 41.6536 27.1329 40.151V37.897C27.1329 36.3944 26.7071 35.2174 25.8557 34.3659C25.0042 33.5144 23.8271 33.0887 22.3245 33.0887H10.9798V44.9593Z" fill="#0E1116"/>
<line x1="45.1282" y1="18.0924" x2="45.1282" y2="80.9076" stroke="#F5B301" stroke-width="1.75" stroke-linecap="square"/>
</g>
<defs>
<clipPath id="clip0_58_20">
<rect width="100" height="100" fill="white"/>
</clipPath>
</defs>
</svg>
